<?xml version="1.0" encoding="UTF-8" standalone="no"?>
<svg
   xmlns="http://www.w3.org/2000/svg"
   xmlns:sodipodi="http://sodipodi.sourceforge.net/DTD/sodipodi-0.dtd"
   xmlns:inkscape="http://www.inkscape.org/namespaces/inkscape"
   width="100%"
   height="100%"
   viewBox="0 0 378 104"
   version="1.1"
   xml:space="preserve"
   style="fill-rule:evenodd;clip-rule:evenodd;stroke-linejoin:round;stroke-miterlimit:2;"
   id="svg299"
   sodipodi:docname="omigrouplogo.svg"><metadata
   pagecolor="#ffffff"
   bordercolor="#666666"
   borderopacity="1"
   objecttolerance="10"
   gridtolerance="10"
   guidetolerance="10"
   inkscape:pageopacity="0"
   inkscape:pageshadow="2"
   inkscape:window-width="640"
   inkscape:window-height="480"
   id="namedview301" />
    <g
   id="Artboard1"
   transform="scale(0.471273,0.172871)">
        <path
   id="rect2"
   style="fill:none"
   d="M 0,0 H 800 V 600 H 0 Z" />
        <g
   transform="matrix(2.12191,0,0,5.78465,14.6955,38.2835)"
   id="g6">
            <path
   shape-rendering="geometricPrecision"
   d="m 43.831,6.655 c 0.644,0.131 1.289,0.282 1.934,0.455 0.645,0.173 1.279,0.364 1.903,0.573 L 49.585,1.97 C 48.843,1.722 48.09,1.494 47.325,1.289 46.56,1.084 45.794,0.904 45.027,0.749 Z"
   style="fill:url(#_Linear1);fill-rule:nonzero"
   id="path4" />
        </g>
        <g
   transform="matrix(2.12191,0,0,5.78465,14.6955,38.2835)"
   id="g10">
            <path
   shape-rendering="geometricPrecision"
   d="M 33.968,6.234 C 35.272,6.083 36.593,6.013 37.924,6.028 L 37.992,0.002 C 36.404,-0.015 34.829,0.068 33.274,0.249 Z"
   style="fill:url(#_Linear2);fill-rule:nonzero"
   id="path8" />
        </g>
        <g
   transform="matrix(2.12191,0,0,5.78465,14.6955,38.2835)"
   id="g14">
            <path
   shape-rendering="geometricPrecision"
   d="m 53.097,10.093 c 1.16,0.653 2.269,1.374 3.323,2.157 L 60.014,7.414 C 58.757,6.48 57.435,5.62 56.051,4.841 Z"
   style="fill:url(#_Linear3);fill-rule:nonzero"
   id="path12" />
        </g>
        <g
   transform="matrix(2.12191,0,0,5.78465,14.6955,38.2835)"
   id="g18">
            <path
   shape-rendering="geometricPrecision"
   d="M 24.459,8.897 C 25.66,8.347 26.896,7.871 28.16,7.474 L 26.352,1.725 c -1.505,0.473 -2.976,1.04 -4.404,1.695 z"
   style="fill:url(#_Linear4);fill-rule:nonzero"
   id="path16" />
        </g>
        <g
   transform="matrix(2.12191,0,0,5.78465,14.6955,38.2835)"
   id="g22">
            <path
   shape-rendering="geometricPrecision"
   d="m 60.83,16.228 c 0.896,0.976 1.729,2.006 2.493,3.083 l 4.914,-3.488 c -0.91,-1.281 -1.9,-2.508 -2.967,-3.67 z"
   style="fill:url(#_Linear5);fill-rule:nonzero"
   id="path20" />
        </g>
        <g
   transform="matrix(2.12191,0,0,5.78465,14.6955,38.2835)"
   id="g26">
            <path
   shape-rendering="geometricPrecision"
   d="m 16.228,14.363 c 0.976,-0.896 2.006,-1.729 3.083,-2.493 L 15.823,6.956 c -1.281,0.91 -2.508,1.9 -3.67,2.967 z"
   style="fill:url(#_Linear6);fill-rule:nonzero"
   id="path24" />
        </g>
        <g
   transform="matrix(2.12191,0,0,5.78465,14.6955,38.2835)"
   id="g30">
            <path
   shape-rendering="geometricPrecision"
   d="m 66.295,24.459 c 0.551,1.201 1.027,2.437 1.424,3.701 l 5.749,-1.808 c -0.474,-1.505 -1.04,-2.976 -1.695,-4.404 z"
   style="fill:url(#_Linear7);fill-rule:nonzero"
   id="path28" />
        </g>
        <g
   transform="matrix(2.12191,0,0,5.78465,14.6955,38.2835)"
   id="g34">
            <path
   shape-rendering="geometricPrecision"
   d="m 10.093,22.096 c 0.653,-1.16 1.374,-2.269 2.157,-3.323 L 7.414,15.179 C 6.48,16.435 5.62,17.758 4.841,19.142 Z"
   style="fill:url(#_Linear8);fill-rule:nonzero"
   id="path32" />
        </g>
        <g
   transform="matrix(2.12191,0,0,5.78465,14.6955,38.2835)"
   id="g38">
            <path
   shape-rendering="geometricPrecision"
   d="m 68.958,33.968 c 0.152,1.304 0.222,2.625 0.207,3.956 l 6.025,0.068 c 0.018,-1.588 -0.065,-3.163 -0.246,-4.718 z"
   style="fill:url(#_Linear9);fill-rule:nonzero"
   id="path36" />
        </g>
        <g
   transform="matrix(2.12191,0,0,5.78465,14.6955,38.2835)"
   id="g42">
            <path
   shape-rendering="geometricPrecision"
   d="M 7.11,29.427 C 7.283,28.783 7.474,28.148 7.683,27.525 L 1.97,25.608 c -0.248,0.741 -0.476,1.495 -0.681,2.26 -0.205,0.765 -0.385,1.531 -0.54,2.298 l 5.906,1.196 c 0.131,-0.644 0.282,-1.29 0.455,-1.935 z"
   style="fill:url(#_Linear10);fill-rule:nonzero"
   id="path40" />
        </g>
        <g
   transform="matrix(2.12191,0,0,5.78465,14.6955,38.2835)"
   id="g46">
            <path
   shape-rendering="geometricPrecision"
   d="m 68.538,43.831 c -0.131,0.644 -0.282,1.289 -0.455,1.934 l 5.82,1.56 c 0.205,-0.765 0.385,-1.531 0.541,-2.298 z"
   style="fill:url(#_Linear11);fill-rule:nonzero"
   id="path44" />
        </g>
        <g
   transform="matrix(2.12191,0,0,5.78465,14.6955,38.2835)"
   id="g50">
            <path
   shape-rendering="geometricPrecision"
   d="M 6.234,41.225 C 6.083,39.921 6.013,38.6 6.028,37.268 L 0.002,37.201 c -0.017,1.588 0.066,3.163 0.247,4.718 z"
   style="fill:url(#_Linear12);fill-rule:nonzero"
   id="path48" />
        </g>
        <g
   transform="matrix(2.12191,0,0,5.78465,14.6955,38.2835)"
   id="g54">
            <path
   shape-rendering="geometricPrecision"
   d="M 8.897,50.734 C 8.347,49.533 7.871,48.297 7.474,47.033 L 1.725,48.84 c 0.473,1.506 1.04,2.977 1.695,4.405 z"
   style="fill:url(#_Linear13);fill-rule:nonzero"
   id="path52" />
        </g>
        <g
   transform="matrix(2.12191,0,0,5.78465,14.6955,38.2835)"
   id="g58">
            <path
   shape-rendering="geometricPrecision"
   d="M 14.363,58.965 C 13.467,57.989 12.634,56.959 11.87,55.882 L 6.956,59.37 c 0.91,1.281 1.9,2.507 2.967,3.67 z"
   style="fill:url(#_Linear14);fill-rule:nonzero"
   id="path56" />
        </g>
        <g
   transform="matrix(2.12191,0,0,5.78465,14.6955,38.2835)"
   id="g62">
            <path
   shape-rendering="geometricPrecision"
   d="m 22.096,65.1 c -1.16,-0.653 -2.269,-1.374 -3.323,-2.158 l -3.594,4.837 c 1.256,0.934 2.579,1.794 3.963,2.573 z"
   style="fill:url(#_Linear15);fill-rule:nonzero"
   id="path60" />
        </g>
        <g
   transform="matrix(2.12191,0,0,5.78465,14.6955,38.2835)"
   id="g66">
            <path
   shape-rendering="geometricPrecision"
   d="M 29.427,68.083 C 28.783,67.91 28.148,67.719 27.525,67.51 l -1.917,5.712 c 0.741,0.249 1.495,0.476 2.26,0.681 z"
   style="fill:url(#_Linear16);fill-rule:nonzero"
   id="path64" />
        </g>
        <g
   transform="matrix(2.12191,0,0,5.78465,14.6955,38.2835)"
   id="g70">
            <path
   shape-rendering="geometricPrecision"
   d="m 57.154,48.845 c -0.821,0 -1.633,0.042 -2.433,0.124 l 0.306,2.997 c 0.698,-0.071 1.408,-0.108 2.127,-0.108 0.72,0 1.429,0.037 2.128,0.108 l 0.306,-2.997 c -0.8,-0.082 -1.612,-0.124 -2.434,-0.124 z"
   style="fill:url(#_Linear17);fill-rule:nonzero"
   id="path68" />
        </g>
        <g
   transform="matrix(2.12191,0,0,5.78465,14.6955,38.2835)"
   id="g74">
            <path
   shape-rendering="geometricPrecision"
   d="m 67.963,51.463 c -1.429,-0.742 -2.95,-1.341 -4.54,-1.777 l -0.798,2.905 c 1.385,0.38 2.708,0.901 3.95,1.546 z"
   style="fill:url(#_Linear18);fill-rule:nonzero"
   id="path72" />
        </g>
        <g
   transform="matrix(2.12191,0,0,5.78465,14.6955,38.2835)"
   id="g78">
            <path
   shape-rendering="geometricPrecision"
   d="m 50.886,49.686 c -1.591,0.436 -3.111,1.035 -4.54,1.777 l 1.388,2.674 c 1.242,-0.645 2.565,-1.166 3.95,-1.546 z"
   style="fill:url(#_Linear19);fill-rule:nonzero"
   id="path76" />
        </g>
        <g
   transform="matrix(2.12191,0,0,5.78465,14.6955,38.2835)"
   id="g82">
            <path
   shape-rendering="geometricPrecision"
   d="M 74.817,56.903 C 73.762,55.664 72.57,54.54 71.265,53.55 l -1.821,2.4 c 1.134,0.86 2.166,1.835 3.079,2.906 z"
   style="fill:url(#_Linear20);fill-rule:nonzero"
   id="path80" />
        </g>
        <g
   transform="matrix(2.12191,0,0,5.78465,14.6955,38.2835)"
   id="g86">
            <path
   shape-rendering="geometricPrecision"
   d="m 43.044,53.55 c -1.306,0.99 -2.497,2.114 -3.552,3.353 l 2.294,1.953 c 0.913,-1.071 1.945,-2.046 3.078,-2.906 z"
   style="fill:url(#_Linear21);fill-rule:nonzero"
   id="path84" />
        </g>
        <g
   transform="matrix(2.12191,0,0,5.78465,14.6955,38.2835)"
   id="g90">
            <path
   shape-rendering="geometricPrecision"
   d="m 79.054,64.585 c -0.487,-1.578 -1.152,-3.081 -1.971,-4.487 l -2.604,1.517 c 0.707,1.212 1.278,2.504 1.696,3.859 z"
   style="fill:url(#_Linear22);fill-rule:nonzero"
   id="path88" />
        </g>
        <g
   transform="matrix(2.12191,0,0,5.78465,14.6955,38.2835)"
   id="g94">
            <path
   shape-rendering="geometricPrecision"
   d="m 37.226,60.098 c -0.819,1.406 -1.484,2.909 -1.971,4.487 l 2.879,0.889 c 0.418,-1.355 0.989,-2.647 1.695,-3.859 z"
   style="fill:url(#_Linear23);fill-rule:nonzero"
   id="path92" />
        </g>
        <g
   transform="matrix(2.12191,0,0,5.78465,14.6955,38.2835)"
   id="g98">
            <path
   shape-rendering="geometricPrecision"
   d="m 80,70.881 c 0,-0.828 -0.047,-1.646 -0.14,-2.452 l -2.993,0.344 c 0.079,0.691 0.12,1.395 0.12,2.108 0,0.713 -0.041,1.416 -0.12,2.108 l 2.993,0.343 C 79.953,72.527 80,71.709 80,70.881 Z"
   style="fill:url(#_Linear24);fill-rule:nonzero"
   id="path96" />
        </g>
        <g
   transform="matrix(2.12191,0,0,5.78465,14.6955,38.2835)"
   id="g102">
            <path
   shape-rendering="geometricPrecision"
   d="m 34.449,68.429 c -0.093,0.806 -0.14,1.624 -0.14,2.452 0,0.828 0.047,1.646 0.14,2.451 l 2.993,-0.343 c -0.079,-0.692 -0.12,-1.395 -0.12,-2.108 0,-0.713 0.041,-1.417 0.12,-2.108 z"
   style="fill:url(#_Linear25);fill-rule:nonzero"
   id="path100" />
        </g>
        <g
   transform="matrix(2.12191,0,0,5.78465,14.6955,38.2835)"
   id="g106">
            <path
   shape-rendering="geometricPrecision"
   d="m 77.083,81.663 c 0.819,-1.406 1.484,-2.909 1.971,-4.487 l -2.879,-0.888 c -0.418,1.354 -0.989,2.647 -1.696,3.858 z"
   style="fill:url(#_Linear26);fill-rule:nonzero"
   id="path104" />
        </g>
        <g
   transform="matrix(2.12191,0,0,5.78465,14.6955,38.2835)"
   id="g110">
            <path
   shape-rendering="geometricPrecision"
   d="m 35.255,77.176 c 0.487,1.578 1.152,3.081 1.971,4.487 l 2.603,-1.517 c -0.706,-1.211 -1.277,-2.504 -1.695,-3.858 z"
   style="fill:url(#_Linear27);fill-rule:nonzero"
   id="path108" />
        </g>
        <g
   transform="matrix(2.12191,0,0,5.78465,14.6955,38.2835)"
   id="g114">
            <path
   shape-rendering="geometricPrecision"
   d="m 71.265,88.212 c 1.305,-0.99 2.497,-2.115 3.552,-3.354 l -2.294,-1.953 c -0.913,1.072 -1.945,2.047 -3.079,2.906 z"
   style="fill:url(#_Linear28);fill-rule:nonzero"
   id="path112" />
        </g>
        <g
   transform="matrix(2.12191,0,0,5.78465,14.6955,38.2835)"
   id="g118">
            <path
   shape-rendering="geometricPrecision"
   d="m 39.492,84.859 c 1.055,1.238 2.246,2.363 3.552,3.353 l 1.82,-2.401 c -1.133,-0.859 -2.165,-1.834 -3.078,-2.906 z"
   style="fill:url(#_Linear29);fill-rule:nonzero"
   id="path116" />
        </g>
        <g
   transform="matrix(2.12191,0,0,5.78465,14.6955,38.2835)"
   id="g122">
            <path
   shape-rendering="geometricPrecision"
   d="m 46.346,90.299 c 1.429,0.741 2.949,1.34 4.54,1.777 l 0.798,-2.905 c -1.385,-0.381 -2.708,-0.902 -3.95,-1.547 z"
   style="fill:url(#_Linear30);fill-rule:nonzero"
   id="path120" />
        </g>
        <g
   transform="matrix(2.12191,0,0,5.78465,14.6955,38.2835)"
   id="g126">
            <path
   shape-rendering="geometricPrecision"
   d="m 63.423,92.076 c 1.59,-0.437 3.111,-1.036 4.54,-1.777 l -1.388,-2.675 c -1.242,0.645 -2.565,1.166 -3.95,1.547 z"
   style="fill:url(#_Linear31);fill-rule:nonzero"
   id="path124" />
        </g>
        <g
   transform="matrix(2.12191,0,0,5.78465,14.6955,38.2835)"
   id="g130">
            <path
   shape-rendering="geometricPrecision"
   d="m 54.721,92.792 c 0.8,0.082 1.612,0.124 2.433,0.124 0.822,0 1.634,-0.042 2.434,-0.124 l -0.306,-2.997 c -0.699,0.071 -1.408,0.108 -2.128,0.108 -0.719,0 -1.429,-0.037 -2.127,-0.108 z"
   style="fill:url(#_Linear32);fill-rule:nonzero"
   id="path128" />
        </g>
        <g
   transform="matrix(2.12191,0,0,5.78465,14.6955,38.2835)"
   id="g134">
            <path
   shape-rendering="geometricPrecision"
   d="m 124.888,69.768 c -2.816,0 -5.397,-0.491 -7.744,-1.472 -2.304,-1.024 -4.288,-2.475 -5.952,-4.352 -1.664,-1.877 -2.965,-4.16 -3.904,-6.848 -0.896,-2.688 -1.344,-5.739 -1.344,-9.152 0,-3.413 0.448,-6.443 1.344,-9.088 0.939,-2.688 2.24,-4.928 3.904,-6.72 1.664,-1.835 3.648,-3.221 5.952,-4.16 2.347,-0.981 4.928,-1.472 7.744,-1.472 2.816,0 5.376,0.491 7.68,1.472 2.347,0.939 4.352,2.325 6.016,4.16 1.664,1.835 2.944,4.096 3.84,6.784 0.939,2.645 1.408,5.653 1.408,9.024 0,3.413 -0.469,6.464 -1.408,9.152 -0.896,2.688 -2.176,4.971 -3.84,6.848 -1.664,1.877 -3.669,3.328 -6.016,4.352 -2.304,0.981 -4.864,1.472 -7.68,1.472 z m 0,-8.128 c 2.859,0 5.12,-1.216 6.784,-3.648 1.664,-2.475 2.496,-5.824 2.496,-10.048 0,-4.181 -0.832,-7.445 -2.496,-9.792 -1.664,-2.347 -3.925,-3.52 -6.784,-3.52 -2.859,0 -5.12,1.173 -6.784,3.52 -1.664,2.347 -2.496,5.611 -2.496,9.792 0,4.224 0.832,7.573 2.496,10.048 1.664,2.432 3.925,3.648 6.784,3.648 z M 151.678,69 V 27.272 h 10.304 l 6.72,18.56 c 0.427,1.237 0.832,2.517 1.216,3.84 0.384,1.28 0.789,2.56 1.216,3.84 h 0.256 c 0.427,-1.28 0.811,-2.56 1.152,-3.84 0.384,-1.323 0.789,-2.603 1.216,-3.84 l 6.592,-18.56 h 10.24 V 69 h -8.576 V 53.704 c 0,-1.024 0.043,-2.155 0.128,-3.392 0.085,-1.237 0.192,-2.475 0.32,-3.712 0.128,-1.28 0.256,-2.517 0.384,-3.712 0.128,-1.237 0.256,-2.368 0.384,-3.392 h -0.256 l -3.392,9.92 -5.952,15.936 h -5.184 l -5.952,-15.936 -3.328,-9.92 h -0.256 c 0.128,1.024 0.256,2.155 0.384,3.392 0.128,1.195 0.256,2.432 0.384,3.712 0.128,1.237 0.235,2.475 0.32,3.712 0.085,1.237 0.128,2.368 0.128,3.392 V 69 Z m 48.75,0 V 27.272 h 9.408 V 69 Z m 30.322,14.976 c -3.925,0 -6.997,-0.789 -9.216,-2.368 -2.219,-1.579 -3.328,-3.648 -3.328,-6.208 0,-1.365 0.405,-2.709 1.216,-4.032 0.853,-1.323 1.984,-2.496 3.392,-3.52 v -0.256 c -0.768,-0.469 -1.408,-1.109 -1.92,-1.92 -0.512,-0.811 -0.768,-1.792 -0.768,-2.944 0,-1.408 0.384,-2.581 1.152,-3.52 0.811,-0.939 1.536,-1.643 2.176,-2.112 V 56.84 c -0.981,-0.853 -1.877,-2.005 -2.688,-3.456 -0.768,-1.451 -1.152,-3.115 -1.152,-4.992 0,-1.536 0.256,-2.944 0.768,-4.224 0.555,-1.323 1.301,-2.453 2.24,-3.392 0.981,-0.981 2.091,-1.749 3.328,-2.304 1.28,-0.555 2.667,-0.832 4.16,-0.832 0.853,0 1.6,0.085 2.24,0.256 0.683,0.128 1.259,0.299 1.728,0.512 h 10.24 V 40.2 h -7.424 c 1.109,0.896 2.005,2.048 2.688,3.456 0.683,1.408 1.024,2.987 1.024,4.736 0,1.536 -0.277,2.965 -0.832,4.288 -0.512,1.323 -1.259,2.475 -2.24,3.456 -0.939,0.981 -2.048,1.749 -3.328,2.304 -1.28,0.555 -2.645,0.832 -4.096,0.832 -0.896,0 -1.813,-0.107 -2.752,-0.32 -0.939,-0.256 -1.771,-0.619 -2.496,-1.088 -0.725,0.597 -1.365,1.259 -1.92,1.984 -0.512,0.725 -0.768,1.643 -0.768,2.752 0,0.597 0.085,1.152 0.256,1.664 0.213,0.512 0.533,0.96 0.96,1.344 0.469,0.384 1.088,0.683 1.856,0.896 0.768,0.213 1.749,0.32 2.944,0.32 h 6.784 c 3.413,0 5.909,0.555 7.488,1.664 1.579,1.109 2.368,2.859 2.368,5.248 0,1.28 -0.341,2.539 -1.024,3.776 -0.64,1.237 -1.579,2.325 -2.816,3.264 -1.195,0.981 -2.667,1.749 -4.416,2.304 -1.749,0.597 -3.691,0.896 -5.824,0.896 z M 230.11,57.48 c 1.109,0 2.176,-0.213 3.2,-0.64 1.024,-0.469 1.92,-1.088 2.688,-1.856 0.768,-0.811 1.387,-1.771 1.856,-2.88 0.469,-1.109 0.704,-2.347 0.704,-3.712 0,-1.365 -0.235,-2.603 -0.704,-3.712 -0.427,-1.109 -1.024,-2.048 -1.792,-2.816 -0.768,-0.768 -1.664,-1.365 -2.688,-1.792 -1.024,-0.427 -2.112,-0.64 -3.264,-0.64 -1.152,0 -2.24,0.213 -3.264,0.64 -1.024,0.427 -1.92,1.024 -2.688,1.792 -0.768,0.768 -1.387,1.707 -1.856,2.816 -0.427,1.109 -0.64,2.347 -0.64,3.712 0,1.365 0.235,2.603 0.704,3.712 0.469,1.109 1.088,2.069 1.856,2.88 0.768,0.768 1.664,1.387 2.688,1.856 1.024,0.427 2.091,0.64 3.2,0.64 z m 0.768,24.704 c 1.835,0 3.477,-0.256 4.928,-0.768 1.493,-0.469 2.752,-1.088 3.776,-1.856 1.024,-0.768 1.813,-1.664 2.368,-2.688 0.555,-0.981 0.832,-1.984 0.832,-3.008 0,-1.792 -0.64,-3.072 -1.92,-3.84 -1.237,-0.768 -3.072,-1.152 -5.504,-1.152 h -7.04 c -0.213,0 -0.683,-0.021 -1.408,-0.064 -0.683,-0.085 -1.451,-0.235 -2.304,-0.448 -1.536,1.024 -2.645,2.133 -3.328,3.328 -0.683,1.237 -1.024,2.432 -1.024,3.584 0,2.048 0.917,3.712 2.752,4.992 1.835,1.28 4.459,1.92 7.872,1.92 z M 251.644,69 V 38.408 h 1.664 l 0.256,5.76 h 0.128 c 1.024,-1.877 2.261,-3.435 3.712,-4.672 1.451,-1.237 3.115,-1.856 4.992,-1.856 0.512,0 1.003,0.043 1.472,0.128 0.469,0.085 0.96,0.256 1.472,0.512 l -0.512,1.792 c -0.512,-0.213 -0.939,-0.341 -1.28,-0.384 -0.341,-0.085 -0.811,-0.128 -1.408,-0.128 -1.408,0 -2.88,0.619 -4.416,1.856 -1.536,1.195 -2.923,3.307 -4.16,6.336 V 69 Z m 29.818,0.768 c -1.835,0 -3.584,-0.363 -5.248,-1.088 -1.622,-0.725 -3.051,-1.771 -4.288,-3.136 -1.238,-1.365 -2.219,-3.029 -2.944,-4.992 -0.726,-2.005 -1.088,-4.267 -1.088,-6.784 0,-2.56 0.362,-4.843 1.088,-6.848 0.725,-2.005 1.706,-3.691 2.944,-5.056 1.237,-1.365 2.666,-2.411 4.288,-3.136 1.664,-0.725 3.413,-1.088 5.248,-1.088 1.834,0 3.562,0.363 5.184,1.088 1.664,0.725 3.114,1.771 4.352,3.136 1.237,1.365 2.218,3.051 2.944,5.056 0.725,2.005 1.088,4.288 1.088,6.848 0,2.517 -0.363,4.779 -1.088,6.784 -0.726,1.963 -1.707,3.627 -2.944,4.992 -1.238,1.365 -2.688,2.411 -4.352,3.136 -1.622,0.725 -3.35,1.088 -5.184,1.088 z m 0,-1.792 c 1.621,0 3.136,-0.341 4.544,-1.024 1.408,-0.683 2.624,-1.643 3.648,-2.88 1.024,-1.28 1.834,-2.773 2.432,-4.48 0.597,-1.749 0.896,-3.691 0.896,-5.824 0,-2.091 -0.299,-4.011 -0.896,-5.76 -0.598,-1.792 -1.408,-3.307 -2.432,-4.544 -1.024,-1.28 -2.24,-2.261 -3.648,-2.944 -1.408,-0.725 -2.923,-1.088 -4.544,-1.088 -1.622,0 -3.136,0.363 -4.544,1.088 -1.408,0.683 -2.624,1.664 -3.648,2.944 -1.024,1.237 -1.835,2.752 -2.432,4.544 -0.598,1.749 -0.896,3.669 -0.896,5.76 0,2.133 0.298,4.075 0.896,5.824 0.597,1.707 1.408,3.2 2.432,4.48 1.024,1.237 2.24,2.197 3.648,2.88 1.408,0.683 2.922,1.024 4.544,1.024 z m 31.886,1.792 c -3.157,0 -5.483,-0.939 -6.976,-2.816 -1.493,-1.877 -2.24,-4.821 -2.24,-8.832 V 38.408 h 1.92 v 19.456 c 0,3.413 0.576,5.952 1.728,7.616 1.152,1.664 3.051,2.496 5.696,2.496 1.92,0 3.669,-0.533 5.248,-1.6 1.579,-1.067 3.328,-2.752 5.248,-5.056 V 38.408 h 1.92 V 69 h -1.664 l -0.256,-5.248 h -0.128 c -1.536,1.792 -3.136,3.243 -4.8,4.352 -1.664,1.109 -3.563,1.664 -5.696,1.664 z m 24.859,13.44 v -44.8 h 1.664 l 0.256,3.968 h 0.128 c 1.536,-1.237 3.2,-2.325 4.992,-3.264 1.834,-0.981 3.712,-1.472 5.631,-1.472 4.139,0 7.211,1.429 9.217,4.288 2.048,2.816 3.072,6.592 3.072,11.328 0,2.603 -0.363,4.928 -1.088,6.976 -0.726,2.048 -1.707,3.776 -2.944,5.184 -1.238,1.408 -2.688,2.496 -4.352,3.264 -1.622,0.725 -3.35,1.088 -5.184,1.088 -1.494,0 -3.03,-0.32 -4.608,-0.96 -1.579,-0.683 -3.2,-1.643 -4.864,-2.88 v 17.28 z m 11.52,-15.232 c 1.664,0 3.178,-0.363 4.544,-1.088 1.408,-0.725 2.624,-1.728 3.648,-3.008 1.024,-1.323 1.813,-2.88 2.368,-4.672 0.554,-1.835 0.832,-3.819 0.832,-5.952 0,-1.963 -0.192,-3.776 -0.576,-5.44 -0.342,-1.707 -0.939,-3.179 -1.792,-4.416 -0.811,-1.237 -1.878,-2.197 -3.2,-2.88 -1.323,-0.725 -2.923,-1.088 -4.8,-1.088 -1.622,0 -3.307,0.469 -5.056,1.408 -1.707,0.896 -3.563,2.219 -5.568,3.968 v 18.944 c 1.877,1.536 3.626,2.624 5.248,3.264 1.664,0.64 3.114,0.96 4.352,0.96 z"
   style="fill-rule:nonzero"
   id="path132" />
        </g>
    </g>
    <defs
   id="defs297">
        <linearGradient
   shape-rendering="geometricPrecision"
   id="_Linear1"
   x1="0"
   y1="0"
   x2="1"
   y2="0"
   gradientUnits="userSpaceOnUse"
   gradientTransform="matrix(-62.1743,-74.7802,74.7802,-62.1743,79.353,82.3604)"><stop
     offset="0"
     style="stop-color:rgb(142,46,239);stop-opacity:1"
     id="stop137" /><stop
     offset="1"
     style="stop-color:rgb(255,74,204);stop-opacity:1"
     id="stop139" /></linearGradient>
        <linearGradient
   shape-rendering="geometricPrecision"
   id="_Linear2"
   x1="0"
   y1="0"
   x2="1"
   y2="0"
   gradientUnits="userSpaceOnUse"
   gradientTransform="matrix(-62.1743,-74.7802,74.7802,-62.1743,79.353,82.3604)"><stop
     offset="0"
     style="stop-color:rgb(142,46,239);stop-opacity:1"
     id="stop142" /><stop
     offset="1"
     style="stop-color:rgb(255,74,204);stop-opacity:1"
     id="stop144" /></linearGradient>
        <linearGradient
   shape-rendering="geometricPrecision"
   id="_Linear3"
   x1="0"
   y1="0"
   x2="1"
   y2="0"
   gradientUnits="userSpaceOnUse"
   gradientTransform="matrix(-62.1743,-74.7802,74.7802,-62.1743,79.353,82.3604)"><stop
     offset="0"
     style="stop-color:rgb(142,46,239);stop-opacity:1"
     id="stop147" /><stop
     offset="1"
     style="stop-color:rgb(255,74,204);stop-opacity:1"
     id="stop149" /></linearGradient>
        <linearGradient
   shape-rendering="geometricPrecision"
   id="_Linear4"
   x1="0"
   y1="0"
   x2="1"
   y2="0"
   gradientUnits="userSpaceOnUse"
   gradientTransform="matrix(-62.1743,-74.7802,74.7802,-62.1743,79.353,82.3604)"><stop
     offset="0"
     style="stop-color:rgb(142,46,239);stop-opacity:1"
     id="stop152" /><stop
     offset="1"
     style="stop-color:rgb(255,74,204);stop-opacity:1"
     id="stop154" /></linearGradient>
        <linearGradient
   shape-rendering="geometricPrecision"
   id="_Linear5"
   x1="0"
   y1="0"
   x2="1"
   y2="0"
   gradientUnits="userSpaceOnUse"
   gradientTransform="matrix(-62.1743,-74.7802,74.7802,-62.1743,79.353,82.3604)"><stop
     offset="0"
     style="stop-color:rgb(142,46,239);stop-opacity:1"
     id="stop157" /><stop
     offset="1"
     style="stop-color:rgb(255,74,204);stop-opacity:1"
     id="stop159" /></linearGradient>
        <linearGradient
   shape-rendering="geometricPrecision"
   id="_Linear6"
   x1="0"
   y1="0"
   x2="1"
   y2="0"
   gradientUnits="userSpaceOnUse"
   gradientTransform="matrix(-62.1743,-74.7802,74.7802,-62.1743,79.353,82.3604)"><stop
     offset="0"
     style="stop-color:rgb(142,46,239);stop-opacity:1"
     id="stop162" /><stop
     offset="1"
     style="stop-color:rgb(255,74,204);stop-opacity:1"
     id="stop164" /></linearGradient>
        <linearGradient
   shape-rendering="geometricPrecision"
   id="_Linear7"
   x1="0"
   y1="0"
   x2="1"
   y2="0"
   gradientUnits="userSpaceOnUse"
   gradientTransform="matrix(-62.1743,-74.7802,74.7802,-62.1743,79.353,82.3604)"><stop
     offset="0"
     style="stop-color:rgb(142,46,239);stop-opacity:1"
     id="stop167" /><stop
     offset="1"
     style="stop-color:rgb(255,74,204);stop-opacity:1"
     id="stop169" /></linearGradient>
        <linearGradient
   shape-rendering="geometricPrecision"
   id="_Linear8"
   x1="0"
   y1="0"
   x2="1"
   y2="0"
   gradientUnits="userSpaceOnUse"
   gradientTransform="matrix(-62.1743,-74.7802,74.7802,-62.1743,79.353,82.3604)"><stop
     offset="0"
     style="stop-color:rgb(142,46,239);stop-opacity:1"
     id="stop172" /><stop
     offset="1"
     style="stop-color:rgb(255,74,204);stop-opacity:1"
     id="stop174" /></linearGradient>
        <linearGradient
   shape-rendering="geometricPrecision"
   id="_Linear9"
   x1="0"
   y1="0"
   x2="1"
   y2="0"
   gradientUnits="userSpaceOnUse"
   gradientTransform="matrix(-62.1743,-74.7802,74.7802,-62.1743,79.353,82.3604)"><stop
     offset="0"
     style="stop-color:rgb(142,46,239);stop-opacity:1"
     id="stop177" /><stop
     offset="1"
     style="stop-color:rgb(255,74,204);stop-opacity:1"
     id="stop179" /></linearGradient>
        <linearGradient
   shape-rendering="geometricPrecision"
   id="_Linear10"
   x1="0"
   y1="0"
   x2="1"
   y2="0"
   gradientUnits="userSpaceOnUse"
   gradientTransform="matrix(-62.1743,-74.7802,74.7802,-62.1743,79.353,82.3604)"><stop
     offset="0"
     style="stop-color:rgb(142,46,239);stop-opacity:1"
     id="stop182" /><stop
     offset="1"
     style="stop-color:rgb(255,74,204);stop-opacity:1"
     id="stop184" /></linearGradient>
        <linearGradient
   shape-rendering="geometricPrecision"
   id="_Linear11"
   x1="0"
   y1="0"
   x2="1"
   y2="0"
   gradientUnits="userSpaceOnUse"
   gradientTransform="matrix(-62.1743,-74.7802,74.7802,-62.1743,79.353,82.3604)"><stop
     offset="0"
     style="stop-color:rgb(142,46,239);stop-opacity:1"
     id="stop187" /><stop
     offset="1"
     style="stop-color:rgb(255,74,204);stop-opacity:1"
     id="stop189" /></linearGradient>
        <linearGradient
   shape-rendering="geometricPrecision"
   id="_Linear12"
   x1="0"
   y1="0"
   x2="1"
   y2="0"
   gradientUnits="userSpaceOnUse"
   gradientTransform="matrix(-62.1743,-74.7802,74.7802,-62.1743,79.353,82.3604)"><stop
     offset="0"
     style="stop-color:rgb(142,46,239);stop-opacity:1"
     id="stop192" /><stop
     offset="1"
     style="stop-color:rgb(255,74,204);stop-opacity:1"
     id="stop194" /></linearGradient>
        <linearGradient
   shape-rendering="geometricPrecision"
   id="_Linear13"
   x1="0"
   y1="0"
   x2="1"
   y2="0"
   gradientUnits="userSpaceOnUse"
   gradientTransform="matrix(-62.1743,-74.7802,74.7802,-62.1743,79.353,82.3604)"><stop
     offset="0"
     style="stop-color:rgb(142,46,239);stop-opacity:1"
     id="stop197" /><stop
     offset="1"
     style="stop-color:rgb(255,74,204);stop-opacity:1"
     id="stop199" /></linearGradient>
        <linearGradient
   shape-rendering="geometricPrecision"
   id="_Linear14"
   x1="0"
   y1="0"
   x2="1"
   y2="0"
   gradientUnits="userSpaceOnUse"
   gradientTransform="matrix(-62.1743,-74.7802,74.7802,-62.1743,79.353,82.3604)"><stop
     offset="0"
     style="stop-color:rgb(142,46,239);stop-opacity:1"
     id="stop202" /><stop
     offset="1"
     style="stop-color:rgb(255,74,204);stop-opacity:1"
     id="stop204" /></linearGradient>
        <linearGradient
   shape-rendering="geometricPrecision"
   id="_Linear15"
   x1="0"
   y1="0"
   x2="1"
   y2="0"
   gradientUnits="userSpaceOnUse"
   gradientTransform="matrix(-62.1743,-74.7802,74.7802,-62.1743,79.353,82.3604)"><stop
     offset="0"
     style="stop-color:rgb(142,46,239);stop-opacity:1"
     id="stop207" /><stop
     offset="1"
     style="stop-color:rgb(255,74,204);stop-opacity:1"
     id="stop209" /></linearGradient>
        <linearGradient
   shape-rendering="geometricPrecision"
   id="_Linear16"
   x1="0"
   y1="0"
   x2="1"
   y2="0"
   gradientUnits="userSpaceOnUse"
   gradientTransform="matrix(-62.1743,-74.7802,74.7802,-62.1743,79.353,82.3604)"><stop
     offset="0"
     style="stop-color:rgb(142,46,239);stop-opacity:1"
     id="stop212" /><stop
     offset="1"
     style="stop-color:rgb(255,74,204);stop-opacity:1"
     id="stop214" /></linearGradient>
        <linearGradient
   shape-rendering="geometricPrecision"
   id="_Linear17"
   x1="0"
   y1="0"
   x2="1"
   y2="0"
   gradientUnits="userSpaceOnUse"
   gradientTransform="matrix(-62.1743,-74.7802,74.7802,-62.1743,79.353,82.3604)"><stop
     offset="0"
     style="stop-color:rgb(142,46,239);stop-opacity:1"
     id="stop217" /><stop
     offset="1"
     style="stop-color:rgb(255,74,204);stop-opacity:1"
     id="stop219" /></linearGradient>
        <linearGradient
   shape-rendering="geometricPrecision"
   id="_Linear18"
   x1="0"
   y1="0"
   x2="1"
   y2="0"
   gradientUnits="userSpaceOnUse"
   gradientTransform="matrix(-62.1743,-74.7802,74.7802,-62.1743,79.353,82.3604)"><stop
     offset="0"
     style="stop-color:rgb(142,46,239);stop-opacity:1"
     id="stop222" /><stop
     offset="1"
     style="stop-color:rgb(255,74,204);stop-opacity:1"
     id="stop224" /></linearGradient>
        <linearGradient
   shape-rendering="geometricPrecision"
   id="_Linear19"
   x1="0"
   y1="0"
   x2="1"
   y2="0"
   gradientUnits="userSpaceOnUse"
   gradientTransform="matrix(-62.1743,-74.7802,74.7802,-62.1743,79.353,82.3604)"><stop
     offset="0"
     style="stop-color:rgb(142,46,239);stop-opacity:1"
     id="stop227" /><stop
     offset="1"
     style="stop-color:rgb(255,74,204);stop-opacity:1"
     id="stop229" /></linearGradient>
        <linearGradient
   shape-rendering="geometricPrecision"
   id="_Linear20"
   x1="0"
   y1="0"
   x2="1"
   y2="0"
   gradientUnits="userSpaceOnUse"
   gradientTransform="matrix(-62.1743,-74.7802,74.7802,-62.1743,79.353,82.3604)"><stop
     offset="0"
     style="stop-color:rgb(142,46,239);stop-opacity:1"
     id="stop232" /><stop
     offset="1"
     style="stop-color:rgb(255,74,204);stop-opacity:1"
     id="stop234" /></linearGradient>
        <linearGradient
   shape-rendering="geometricPrecision"
   id="_Linear21"
   x1="0"
   y1="0"
   x2="1"
   y2="0"
   gradientUnits="userSpaceOnUse"
   gradientTransform="matrix(-62.1743,-74.7802,74.7802,-62.1743,79.353,82.3604)"><stop
     offset="0"
     style="stop-color:rgb(142,46,239);stop-opacity:1"
     id="stop237" /><stop
     offset="1"
     style="stop-color:rgb(255,74,204);stop-opacity:1"
     id="stop239" /></linearGradient>
        <linearGradient
   shape-rendering="geometricPrecision"
   id="_Linear22"
   x1="0"
   y1="0"
   x2="1"
   y2="0"
   gradientUnits="userSpaceOnUse"
   gradientTransform="matrix(-62.1743,-74.7802,74.7802,-62.1743,79.353,82.3604)"><stop
     offset="0"
     style="stop-color:rgb(142,46,239);stop-opacity:1"
     id="stop242" /><stop
     offset="1"
     style="stop-color:rgb(255,74,204);stop-opacity:1"
     id="stop244" /></linearGradient>
        <linearGradient
   shape-rendering="geometricPrecision"
   id="_Linear23"
   x1="0"
   y1="0"
   x2="1"
   y2="0"
   gradientUnits="userSpaceOnUse"
   gradientTransform="matrix(-62.1743,-74.7802,74.7802,-62.1743,79.353,82.3604)"><stop
     offset="0"
     style="stop-color:rgb(142,46,239);stop-opacity:1"
     id="stop247" /><stop
     offset="1"
     style="stop-color:rgb(255,74,204);stop-opacity:1"
     id="stop249" /></linearGradient>
        <linearGradient
   shape-rendering="geometricPrecision"
   id="_Linear24"
   x1="0"
   y1="0"
   x2="1"
   y2="0"
   gradientUnits="userSpaceOnUse"
   gradientTransform="matrix(-62.1743,-74.7802,74.7802,-62.1743,79.353,82.3604)"><stop
     offset="0"
     style="stop-color:rgb(142,46,239);stop-opacity:1"
     id="stop252" /><stop
     offset="1"
     style="stop-color:rgb(255,74,204);stop-opacity:1"
     id="stop254" /></linearGradient>
        <linearGradient
   shape-rendering="geometricPrecision"
   id="_Linear25"
   x1="0"
   y1="0"
   x2="1"
   y2="0"
   gradientUnits="userSpaceOnUse"
   gradientTransform="matrix(-62.1743,-74.7802,74.7802,-62.1743,79.353,82.3604)"><stop
     offset="0"
     style="stop-color:rgb(142,46,239);stop-opacity:1"
     id="stop257" /><stop
     offset="1"
     style="stop-color:rgb(255,74,204);stop-opacity:1"
     id="stop259" /></linearGradient>
        <linearGradient
   shape-rendering="geometricPrecision"
   id="_Linear26"
   x1="0"
   y1="0"
   x2="1"
   y2="0"
   gradientUnits="userSpaceOnUse"
   gradientTransform="matrix(-62.1743,-74.7802,74.7802,-62.1743,79.353,82.3604)"><stop
     offset="0"
     style="stop-color:rgb(142,46,239);stop-opacity:1"
     id="stop262" /><stop
     offset="1"
     style="stop-color:rgb(255,74,204);stop-opacity:1"
     id="stop264" /></linearGradient>
        <linearGradient
   shape-rendering="geometricPrecision"
   id="_Linear27"
   x1="0"
   y1="0"
   x2="1"
   y2="0"
   gradientUnits="userSpaceOnUse"
   gradientTransform="matrix(-62.1743,-74.7802,74.7802,-62.1743,79.353,82.3604)"><stop
     offset="0"
     style="stop-color:rgb(142,46,239);stop-opacity:1"
     id="stop267" /><stop
     offset="1"
     style="stop-color:rgb(255,74,204);stop-opacity:1"
     id="stop269" /></linearGradient>
        <linearGradient
   shape-rendering="geometricPrecision"
   id="_Linear28"
   x1="0"
   y1="0"
   x2="1"
   y2="0"
   gradientUnits="userSpaceOnUse"
   gradientTransform="matrix(-62.1743,-74.7802,74.7802,-62.1743,79.353,82.3604)"><stop
     offset="0"
     style="stop-color:rgb(142,46,239);stop-opacity:1"
     id="stop272" /><stop
     offset="1"
     style="stop-color:rgb(255,74,204);stop-opacity:1"
     id="stop274" /></linearGradient>
        <linearGradient
   shape-rendering="geometricPrecision"
   id="_Linear29"
   x1="0"
   y1="0"
   x2="1"
   y2="0"
   gradientUnits="userSpaceOnUse"
   gradientTransform="matrix(-62.1743,-74.7802,74.7802,-62.1743,79.353,82.3604)"><stop
     offset="0"
     style="stop-color:rgb(142,46,239);stop-opacity:1"
     id="stop277" /><stop
     offset="1"
     style="stop-color:rgb(255,74,204);stop-opacity:1"
     id="stop279" /></linearGradient>
        <linearGradient
   shape-rendering="geometricPrecision"
   id="_Linear30"
   x1="0"
   y1="0"
   x2="1"
   y2="0"
   gradientUnits="userSpaceOnUse"
   gradientTransform="matrix(-62.1743,-74.7802,74.7802,-62.1743,79.353,82.3604)"><stop
     offset="0"
     style="stop-color:rgb(142,46,239);stop-opacity:1"
     id="stop282" /><stop
     offset="1"
     style="stop-color:rgb(255,74,204);stop-opacity:1"
     id="stop284" /></linearGradient>
        <linearGradient
   shape-rendering="geometricPrecision"
   id="_Linear31"
   x1="0"
   y1="0"
   x2="1"
   y2="0"
   gradientUnits="userSpaceOnUse"
   gradientTransform="matrix(-62.1743,-74.7802,74.7802,-62.1743,79.353,82.3604)"><stop
     offset="0"
     style="stop-color:rgb(142,46,239);stop-opacity:1"
     id="stop287" /><stop
     offset="1"
     style="stop-color:rgb(255,74,204);stop-opacity:1"
     id="stop289" /></linearGradient>
        <linearGradient
   shape-rendering="geometricPrecision"
   id="_Linear32"
   x1="0"
   y1="0"
   x2="1"
   y2="0"
   gradientUnits="userSpaceOnUse"
   gradientTransform="matrix(-62.1743,-74.7802,74.7802,-62.1743,79.353,82.3604)"><stop
     offset="0"
     style="stop-color:rgb(142,46,239);stop-opacity:1"
     id="stop292" /><stop
     offset="1"
     style="stop-color:rgb(255,74,204);stop-opacity:1"
     id="stop294" /></linearGradient>
    </defs>
</svg>
